Coordinates
version=1
nRows=14
nColumns=63
inDegrees=yes

Units are S.I. units (second, meters, Newtons, ...)
If the header above contains a line with 'inDegrees', this indicates whether rotational values are in degrees (yes) or radians (no).

endheader
time	pelvis_tilt	pelvis_list	pelvis_rotation	pelvis_tx	pelvis_ty	pelvis_tz	hip_flexion_r	hip_adduction_r	hip_rotation_r	knee_angle_r	knee_angle_r_beta	ankle_angle_r	subtalar_angle_r	mtp_angle_r	hip_flexion_l	hip_adduction_l	hip_rotation_l	knee_angle_l	knee_angle_l_beta	ankle_angle_l	subtalar_angle_l	mtp_angle_l	L5_S1_Flex_Ext	L5_S1_Lat_Bending	L5_S1_axial_rotation	L4_L5_Flex_Ext	L4_L5_Lat_Bending	L4_L5_axial_rotation	L3_L4_Flex_Ext	L3_L4_Lat_Bending	L3_L4_axial_rotation	L2_L3_Flex_Ext	L2_L3_Lat_Bending	L2_L3_axial_rotation	L1_L2_Flex_Ext	L1_L2_Lat_Bending	L1_L2_axial_rotation	L1_T12_Flex_Ext	L1_T12_Lat_Bending	L1_T12_axial_rotation	Abs_r3	Abs_r2	Abs_r1	Abs_t1	Abs_t2	neck_flexion	neck_bending	neck_rotation	arm_flex_r	arm_add_r	arm_rot_r	elbow_flex_r	pro_sup_r	wrist_flex_r	wrist_dev_r	arm_flex_l	arm_add_l	arm_rot_l	elbow_flex_l	pro_sup_l	wrist_flex_l	wrist_dev_l
3.547170	-6.441284	-2.397169	82.952185	0.215485	0.449629	0.902371	0.263664	-5.636128	-22.105387	11.386058	0.198724	22.720247	11.150027	0.000000	1.671597	3.215237	-8.786375	11.901631	0.207723	21.474180	16.105183	0.000000	-0.287699	-0.123447	-2.128017	-0.534285	-0.164185	-2.261018	-0.472660	-0.300149	-2.261018	-0.328811	-0.300149	-1.862015	-0.267157	-0.251733	-1.729014	-0.164391	-0.191220	-1.596013	-2.055002	-1.396458	-11.835394	0.000000	0.000000	-8.417317	-0.485735	14.497403	24.676766	-0.884045	52.638943	149.897255	75.755515	1.855781	-17.559725	23.416555	-2.515496	53.840969	149.832519	71.663786	0.748127	-11.500475
3.566038	-6.297518	-2.746239	83.065440	0.215391	0.449421	0.902426	0.514836	-5.389108	-22.229473	11.185907	0.195231	22.465536	11.025304	0.000000	2.051727	3.007258	-8.704591	11.936405	0.208330	21.487893	16.223556	0.000000	-0.285499	-0.077977	-2.197590	-0.530200	-0.103710	-2.334939	-0.469046	-0.189594	-2.334939	-0.326297	-0.189594	-1.922891	-0.265114	-0.159011	-1.785542	-0.163134	-0.120787	-1.648192	-2.039289	-0.882093	-12.222335	0.000000	0.000000	-8.254260	-0.365765	15.140392	25.734876	-1.943832	53.396684	149.899773	77.424995	0.060587	-18.170472	23.196053	-3.436723	54.882266	149.860177	72.854719	0.917845	-12.687155
3.584906	-6.162935	-3.061299	83.233238	0.215349	0.449172	0.902510	0.726067	-5.148440	-22.338478	10.994890	0.191897	22.259724	10.880821	0.000000	2.410677	2.808126	-8.563506	11.996649	0.209381	21.527069	16.333824	0.000000	-0.286486	-0.034583	-2.268456	-0.532034	-0.045995	-2.410234	-0.470668	-0.084084	-2.410234	-0.327425	-0.084084	-1.984899	-0.266031	-0.070521	-1.843120	-0.163698	-0.053568	-1.701342	-2.046342	-0.391206	-12.616469	0.000000	0.000000	-8.001382	-0.279770	15.669527	26.829156	-2.923199	54.205710	149.904066	79.616071	-2.469424	-18.939435	22.886008	-4.356580	55.523767	149.884349	74.669518	1.084865	-13.935548
3.603774	-6.050570	-3.326055	83.447950	0.215385	0.448863	0.902645	0.894342	-4.938151	-22.465686	10.838765	0.189172	22.127427	10.754653	0.000000	2.736063	2.631029	-8.399306	12.088441	0.210983	21.598387	16.466700	0.000000	-0.292131	0.003696	-2.332354	-0.542517	0.004916	-2.478127	-0.479943	0.008987	-2.478127	-0.333877	0.008987	-2.040810	-0.271273	0.007538	-1.895038	-0.166924	0.005726	-1.749266	-2.086665	0.041814	-12.971856	0.000000	0.000000	-7.700403	-0.197360	16.007622	27.871950	-3.828487	55.028183	149.911438	82.199933	-5.648034	-19.868315	22.508909	-5.268349	55.703203	149.910889	77.084667	1.219905	-15.066105
3.622642	-5.957336	-3.532843	83.705868	0.215484	0.448470	0.902832	1.018569	-4.756821	-22.588891	10.730634	0.187285	22.070953	10.602734	0.000000	3.018116	2.475894	-8.209152	12.209935	0.213104	21.704198	16.606596	0.000000	-0.302777	0.037261	-2.387774	-0.562288	0.049557	-2.537009	-0.497433	0.090597	-2.537009	-0.346044	0.090597	-2.089302	-0.281159	0.075983	-1.940066	-0.173007	0.057718	-1.790830	-2.162708	0.421506	-13.280080	0.000000	0.000000	-7.379906	-0.117577	16.172189	28.795947	-4.673567	55.823022	149.928132	84.706713	-9.128340	-20.769079	22.104515	-6.177787	55.490715	149.941357	80.008313	1.025324	-16.007240
3.641509	-5.881132	-3.685356	83.995221	0.215624	0.447967	0.903050	1.105780	-4.604225	-22.694684	10.673267	0.186284	22.084944	10.412122	0.000000	3.255671	2.342546	-7.995169	12.356487	0.215661	21.846551	16.740449	0.000000	-0.317272	0.065739	-2.432778	-0.589207	0.087432	-2.584826	-0.521247	0.159837	-2.584826	-0.362611	0.159837	-2.128681	-0.294619	0.134054	-1.976632	-0.181289	0.101829	-1.824583	-2.266245	0.743649	-13.530380	0.000000	0.000000	-7.077956	-0.007597	16.136948	29.542200	-5.461334	56.509801	149.969209	86.079109	-12.163839	-21.144169	21.719765	-7.070024	54.990829	149.960237	83.089134	0.347398	-16.656967
3.660377	-5.823590	-3.788674	84.300720	0.215799	0.447360	0.903290	1.164476	-4.483250	-22.789124	10.666541	0.186166	22.164722	10.195436	0.000000	3.449595	2.233099	-7.767183	12.523600	0.218578	22.009012	16.858594	0.000000	-0.334898	0.089035	-2.467944	-0.621938	0.118417	-2.622190	-0.550203	0.216481	-2.622190	-0.382754	0.216481	-2.159451	-0.310986	0.181561	-2.005204	-0.191361	0.137916	-1.850958	-2.392140	1.007186	-13.725962	0.000000	0.000000	-6.818604	0.127801	15.915179	30.057579	-6.184411	56.961273	150.041835	86.990397	-15.165668	-20.915775	21.401633	-7.935587	54.343738	149.953163	85.739855	-0.895520	-17.031344
3.679245	-5.781720	-3.862953	84.601739	0.216014	0.446666	0.903522	1.215648	-4.388355	-22.869301	10.702582	0.186795	22.294010	9.968680	0.000000	3.612616	2.143560	-7.532616	12.702151	0.221694	22.172953	16.936709	0.000000	-0.353381	0.108244	-2.495475	-0.656263	0.143965	-2.651442	-0.580569	0.263186	-2.651442	-0.403879	0.263186	-2.183541	-0.328149	0.220732	-2.027573	-0.201922	0.167671	-1.871606	-2.524164	1.224483	-13.879083	0.000000	0.000000	-6.628446	0.289367	15.547502	30.316267	-6.802450	57.033313	150.115191	87.465940	-17.924795	-19.972641	21.150580	-8.741419	53.572513	149.929957	87.690420	-2.504880	-17.106324
3.698113	-5.757920	-3.909100	84.877717	0.216294	0.445940	0.903715	1.253182	-4.319204	-22.948600	10.758980	0.187780	22.452066	9.774091	0.000000	3.727614	2.077542	-7.297152	12.859762	0.224445	22.307192	16.959363	0.000000	-0.373910	0.123818	-2.514483	-0.694388	0.164678	-2.671638	-0.614296	0.301051	-2.671638	-0.427341	0.301051	-2.200172	-0.347213	0.252490	-2.043017	-0.213652	0.191794	-1.885862	-2.670800	1.400655	-13.984798	0.000000	0.000000	-6.494041	0.423881	15.055161	30.354198	-7.279131	56.674195	150.142340	87.616649	-20.396255	-18.407137	20.986787	-9.452585	52.652304	149.906242	88.826476	-4.259108	-16.836243
3.716981	-5.758320	-3.937652	85.106312	0.216689	0.445231	0.903850	1.285410	-4.275875	-23.009510	10.821403	0.188869	22.619128	9.614172	0.000000	3.803175	2.038330	-7.076001	12.993584	0.226781	22.397802	16.914698	0.000000	-0.396075	0.135334	-2.518582	-0.735551	0.179994	-2.675993	-0.650712	0.329050	-2.675993	-0.452674	0.329050	-2.203759	-0.367795	0.275972	-2.046348	-0.226317	0.209632	-1.888936	-2.829125	1.530920	-14.007597	0.000000	0.000000	-6.394985	0.524330	14.443379	30.227859	-7.581989	55.834979	150.075093	87.317287	-22.233747	-16.274936	20.927808	-10.021634	51.523274	149.883229	89.393615	-6.007078	-16.249937
3.735849	-5.789492	-3.961529	85.305264	0.217198	0.444583	0.903908	1.311789	-4.265642	-23.131159	10.873473	0.189778	22.787581	9.581034	0.000000	3.845300	2.031808	-6.856724	13.083811	0.228356	22.425574	16.808162	0.000000	-0.417047	0.143053	-2.507933	-0.774498	0.190260	-2.664679	-0.685166	0.347818	-2.664679	-0.476643	0.347818	-2.194441	-0.387270	0.291713	-2.037696	-0.238301	0.221589	-1.880950	-2.978923	1.618241	-13.948371	0.000000	0.000000	-6.333261	0.578009	13.730431	30.018456	-7.705183	54.504951	149.877964	87.626882	-24.149254	-13.912939	20.993109	-10.409860	50.103743	149.851481	89.613523	-7.633649	-15.458668
3.754717	-5.849235	-3.981920	85.480940	0.217834	0.444032	0.903916	1.326255	-4.279120	-23.285404	10.901140	0.190261	22.938250	9.629104	0.000000	3.859150	2.053259	-6.639317	13.133760	0.229227	22.390786	16.648025	0.000000	-0.436811	0.146802	-2.482140	-0.811202	0.195246	-2.637274	-0.717637	0.356933	-2.637274	-0.499232	0.356933	-2.171873	-0.405623	0.299358	-2.016739	-0.249594	0.227396	-1.861605	-3.120099	1.660649	-13.804919	0.000000	0.000000	-6.290626	0.599753	12.932937	29.830620	-7.656326	52.658811	149.529676	88.078602	-25.743017	-11.256854	21.221215	-10.585533	48.337821	149.787112	89.663547	-9.084157	-14.538278
3.773585	-5.932818	-4.007470	85.629975	0.218607	0.443582	0.903894	1.331934	-4.306685	-23.461130	10.893596	0.190129	23.063563	9.737577	0.000000	3.853570	2.096566	-6.432035	13.138846	0.229316	22.298558	16.450766	0.000000	-0.453236	0.146747	-2.434702	-0.841705	0.195173	-2.586870	-0.744622	0.356800	-2.586870	-0.518004	0.356800	-2.130364	-0.420875	0.299246	-1.978195	-0.258979	0.227311	-1.826026	-3.237423	1.660029	-13.541079	0.000000	0.000000	-6.287559	0.612427	12.031832	29.731465	-7.476904	50.295808	149.066660	88.562839	-26.948331	-8.328912	21.657756	-10.522748	46.231352	149.641970	89.573524	-10.286396	-13.570181
3.792453	-6.044592	-4.044287	85.722289	0.219565	0.443220	0.903890	1.341987	-4.351493	-23.616714	10.852486	0.189412	23.162507	9.893664	0.000000	3.833479	2.163531	-6.258615	13.089125	0.228448	22.145185	16.220360	0.000000	-0.464438	0.140968	-2.351241	-0.862508	0.187487	-2.498193	-0.763025	0.342749	-2.498193	-0.530806	0.342749	-2.057336	-0.431277	0.287461	-1.910383	-0.265380	0.218359	-1.763430	-3.317435	1.594655	-13.076895	0.000000	0.000000	-6.328154	0.642187	10.928625	29.752933	-7.229961	47.461251	148.555769	88.950823	-27.696060	-5.194322	22.374968	-10.239277	43.878008	149.376154	89.585624	-11.467858	-12.659749
